<?xml version="1.0" encoding="UTF-8"?>
<svg version="1.1" xmlns="http://www.w3.org/2000/svg" width="1024" height="1024" viewBox="0 0 1024 1024">
<rect x="160" y="160" width="704" height="704" rx="152" ry="152" fill="#000000"/>
<g>
<path d="M0 0 C1.437 0.468 2.873 0.938 4.309 1.41 C5.109 1.672 5.908 1.934 6.732 2.204 C9.576 3.202 12.152 4.486 14.793 5.934 C15.823 6.494 16.854 7.053 17.915 7.63 C18.455 7.929 18.455 7.929 21.188 9.438 C22.93 10.389 24.673 11.34 26.416 12.29 C28.172 13.25 29.925 14.213 31.679 15.176 C34.638 16.801 37.603 18.417 40.57 20.027 C55.757 28.271 70.88 36.634 86 45 C86.591 45.327 87.181 45.653 87.789 45.99 C101.082 53.346 114.365 60.718 127.571 68.229 C132.318 70.929 137.078 73.597 141.875 76.207 C153.847 82.762 164.871 89.908 175.685 98.229 C179.605 101.227 183.586 104.141 187.562 107.062 C188.348 107.642 189.133 108.221 189.942 108.818 C195.308 112.773 200.71 116.676 206.125 120.562 C212.079 124.839 217.943 129.214 223.75 133.688 C226.497 135.795 229.247 137.899 232 140 C232.672 140.514 233.344 141.027 234.036 141.556 C235.951 143.01 237.879 144.445 239.812 145.875 C240.381 146.31 240.95 146.746 241.536 147.194 C245.377 149.995 245.377 149.995 248.012 150.016 C250.868 148.556 253.426 146.773 256 144.875 C256.301 144.657 256.301 144.657 257.823 143.552 C264.018 139.035 270.14 134.421 276.264 129.81 C281.96 125.521 287.687 121.278 293.438 117.062 C301.158 111.402 308.784 105.625 316.357 99.768 C327.507 91.198 338.829 83.72 351.188 77.062 C352.479 76.359 353.77 75.656 355.061 74.951 C357.585 73.574 360.111 72.2 362.638 70.829 C366.774 68.579 370.89 66.296 375 64 C380.236 61.083 385.48 58.183 390.73 55.293 C393.216 53.925 395.702 52.556 398.188 51.188 C398.814 50.843 399.44 50.498 400.085 50.143 C408.318 45.608 416.519 41.024 424.688 36.375 C433.805 31.189 443.017 26.195 452.27 21.254 C460.749 16.713 469.128 12.011 477.441 7.174 C478.319 6.669 479.197 6.164 480.102 5.645 C480.858 5.205 481.614 4.765 482.393 4.312 C484.636 3.183 486.813 2.286 489.163 1.418 C489.522 1.285 489.522 1.285 491.342 0.61 C491.889 0.409 492.436 0.207 493 0 C493.458 39.635 493.81 79.271 494.021 118.908 C494.046 123.592 494.072 128.275 494.099 132.959 C494.104 133.891 494.109 134.824 494.115 135.784 C494.201 150.865 494.359 165.945 494.543 181.025 C494.73 196.508 494.841 211.991 494.882 227.475 C494.909 237.025 494.996 246.57 495.158 256.118 C495.264 262.673 495.296 269.226 495.27 275.782 C495.257 279.562 495.276 283.334 495.384 287.113 C495.98 309.064 495.98 309.064 491.089 315.524 C486.471 319.873 481.306 322.828 475.644 325.612 C471.136 327.978 467.109 331.011 463 334 C461.335 335.17 459.669 336.337 458 337.5 C457.587 337.789 457.587 337.789 455.5 339.25 C408 372.5 408 372.5 405.5 374.25 C403.834 375.416 402.169 376.582 400.504 377.748 C396.316 380.681 392.125 383.611 387.93 386.535 C379.847 392.173 371.792 397.842 363.812 403.625 C357.744 408.021 351.668 412.406 345.562 416.75 C345.204 417.007 345.204 417.007 343.392 418.307 C342.728 418.778 342.063 419.249 341.379 419.734 C340.797 420.149 340.215 420.564 339.615 420.991 C338 422 338 422 335 423 C334.67 363.27 334.34 303.54 334 242 C320.156 257.974 320.156 257.974 314.301 265.199 C310.62 269.68 306.825 274.062 303.043 278.457 C300.158 281.811 297.293 285.183 294.438 288.562 C294.213 288.829 294.213 288.829 293.075 290.175 C292.169 291.247 291.264 292.319 290.359 293.391 C288.075 296.096 285.787 298.798 283.5 301.5 C282.583 302.583 281.667 303.667 280.75 304.75 C275.25 311.25 275.25 311.25 273.874 312.876 C272.96 313.956 272.047 315.036 271.134 316.116 C268.798 318.879 266.457 321.638 264.109 324.391 C258.922 330.481 253.831 336.62 249 343 C246.165 342.659 245.108 342.112 243.098 340.023 C242.426 339.149 241.754 338.275 241.062 337.375 C237.326 332.635 233.476 328.041 229.5 323.5 C225.765 319.219 222.075 314.917 218.5 310.5 C214.422 305.466 210.194 300.575 205.94 295.69 C201.953 291.109 198.012 286.492 194.099 281.849 C191.224 278.44 188.329 275.049 185.419 271.669 C179.844 265.192 174.387 258.636 169 252 C166.03 248.37 163.06 244.74 160 241 C159.835 271.03 159.835 271.03 159 423 C155.998 421.499 153.541 420.074 150.832 418.164 C150.03 417.601 149.228 417.037 148.402 416.457 C147.547 415.852 146.693 415.248 145.812 414.625 C144.923 413.999 144.033 413.372 143.116 412.727 C140.409 410.821 137.704 408.911 135 407 C133.5 405.943 132 404.885 130.5 403.828 C125.642 400.403 120.789 396.972 115.937 393.541 C105.158 385.921 94.353 378.338 83.535 370.773 C81.054 369.038 78.574 367.3 76.094 365.562 C67.24 359.359 58.377 353.171 49.5 347 C35.743 337.436 22.011 327.836 8.312 318.188 C7.95 317.932 7.95 317.932 6.114 316.642 C1.117 313.117 1.117 313.117 0 312 C-0.097 310.337 -0.124 308.67 -0.123 307.004 C-0.125 305.916 -0.127 304.827 -0.129 303.705 C-0.126 302.494 -0.123 301.283 -0.12 300.035 C-0.121 298.76 -0.122 297.485 -0.123 296.172 C-0.125 292.617 -0.121 289.062 -0.116 285.507 C-0.112 281.679 -0.113 277.851 -0.114 274.024 C-0.114 267.387 -0.111 260.75 -0.106 254.113 C-0.098 244.517 -0.095 234.921 -0.094 225.325 C-0.092 209.758 -0.085 194.191 -0.075 178.624 C-0.066 163.498 -0.059 148.372 -0.055 133.246 C-0.055 132.78 -0.055 132.78 -0.054 130.423 C-0.053 125.749 -0.052 121.075 -0.05 116.401 C-0.04 77.601 -0.022 38.8 0 0 Z " fill="#FFFFFF" transform="translate(265,281)"/>
<path d="M0 0 C1.895 0.32 1.895 0.32 4 1 C4.931 2.587 5.849 4.183 6.703 5.812 C8.233 8.392 10.014 10.573 11.938 12.875 C15.812 17.516 19.53 22.249 23.188 27.062 C27.739 33.046 32.318 39.007 36.938 44.938 C37.516 45.68 38.094 46.422 38.689 47.187 C39.865 48.695 41.04 50.204 42.216 51.712 C45.23 55.577 48.24 59.445 51.25 63.312 C51.838 64.068 52.425 64.823 53.031 65.601 C57.165 70.918 61.274 76.252 65.375 81.594 C69.166 86.522 72.993 91.422 76.813 96.328 C81.171 101.927 85.508 107.541 89.82 113.176 C91.195 114.957 92.584 116.727 93.992 118.48 C94.593 119.229 95.194 119.978 95.812 120.75 C96.314 121.364 96.815 121.977 97.332 122.609 C98.84 124.771 100.067 126.914 101.316 129.23 C103.902 133.962 106.914 138.239 110.125 142.562 C111.289 144.153 112.452 145.744 113.613 147.336 C114.188 148.123 114.762 148.911 115.354 149.722 C117.728 153.007 120.028 156.34 122.312 159.688 C126.824 166.292 131.37 172.872 135.938 179.438 C136.618 180.416 137.299 181.395 138 182.403 C142.703 189.155 147.431 195.889 152.195 202.597 C153.073 203.835 153.942 205.079 154.802 206.33 C156 208 156 208 158.34 210.699 C160.915 215.82 160.209 220.636 159.812 226.25 C159.755 227.351 159.698 228.452 159.639 229.586 C159.178 237.643 159.178 237.643 158 240 C157.879 242.338 157.822 244.679 157.795 247.02 C157.785 247.742 157.775 248.464 157.765 249.208 C157.733 251.6 157.708 253.991 157.684 256.383 C157.663 258.039 157.642 259.695 157.621 261.352 C157.565 265.715 157.516 270.078 157.468 274.441 C157.418 278.892 157.362 283.342 157.307 287.793 C157.199 296.529 157.098 305.264 157 314 C149.665 307.759 149.665 307.759 146.281 304.562 C145.659 303.977 145.036 303.392 144.395 302.789 C143.132 301.596 141.868 300.404 140.605 299.211 C136.928 295.754 133.194 292.436 129.268 289.262 C128.849 288.845 128.431 288.429 128 288 C128 287.34 128 286.68 128 286 C127.407 285.736 126.814 285.471 126.203 285.199 C123.92 283.956 122.526 282.696 120.75 280.812 C118.28 278.263 115.758 275.872 113.062 273.562 C109.405 270.418 106.02 267.065 102.664 263.602 C101 262 101 262 99 261 C98.67 299.61 98.34 338.22 98 378 C86.975 372.488 76.998 364.539 66.93 357.465 C66.125 356.901 65.32 356.338 64.491 355.757 C62.752 354.531 61.022 353.292 59.298 352.043 C58.418 351.412 57.539 350.78 56.633 350.129 C55.84 349.553 55.048 348.978 54.231 348.385 C52.058 347.036 50.451 346.588 48 346 C46.027 344.823 46.027 344.823 43.938 343.332 C43.15 342.775 42.363 342.218 41.552 341.645 C40.71 341.04 39.868 340.435 39 339.812 C37.203 338.538 35.406 337.263 33.609 335.988 C32.686 335.33 31.762 334.672 30.811 333.995 C25.5 330.225 20.147 326.515 14.801 322.796 C14.026 322.255 13.251 321.714 12.453 321.156 C11.784 320.69 11.116 320.224 10.427 319.744 C9.626 319.169 8.825 318.593 8 318 C7.355 317.656 6.711 317.313 6.047 316.959 C2.62 314.904 0.381 313.344 -0.738 309.399 C-1.012 306.054 -1.027 302.79 -0.962 299.434 C-0.969 298.155 -0.976 296.875 -0.983 295.557 C-1.001 292.013 -0.969 288.47 -0.929 284.926 C-0.894 281.102 -0.906 277.278 -0.912 273.454 C-0.916 266.831 -0.891 260.208 -0.846 253.584 C-0.781 244.008 -0.76 234.433 -0.75 224.857 C-0.732 209.32 -0.679 193.783 -0.604 178.247 C-0.53 163.155 -0.473 148.063 -0.439 132.971 C-0.437 132.041 -0.435 131.11 -0.433 130.152 C-0.423 125.484 -0.413 120.817 -0.403 116.15 C-0.32 77.433 -0.179 38.716 0 0 Z " fill="#FFFFFF" transform="translate(265,281)"/>
<path d="M0 0 C13.088 6.366 25.879 13.258 38.67 20.196 C41.844 21.915 45.021 23.627 48.199 25.336 C58.917 31.106 69.57 36.977 80.154 42.989 C87.497 47.159 94.866 51.278 102.25 55.375 C102.809 55.685 102.809 55.685 105.638 57.255 C110.912 60.181 116.188 63.104 121.464 66.026 C123.876 67.362 126.288 68.7 128.7 70.037 C130.372 70.964 132.045 71.889 133.718 72.814 C136.818 74.533 139.911 76.262 143 78 C143.517 78.291 143.517 78.291 146.131 79.761 C152.409 83.352 158.301 87.196 164.062 91.562 C165.708 92.792 167.354 94.021 169 95.25 C169.828 95.871 170.655 96.493 171.508 97.133 C175.51 100.131 179.536 103.097 183.562 106.062 C184.347 106.641 185.131 107.22 185.939 107.816 C191.306 111.772 196.709 115.675 202.125 119.562 C208.079 123.839 213.943 128.214 219.75 132.688 C222.497 134.795 225.247 136.899 228 139 C228.672 139.514 229.344 140.027 230.036 140.556 C231.951 142.01 233.879 143.445 235.812 144.875 C236.381 145.31 236.95 145.746 237.536 146.194 C241.377 148.995 241.377 148.995 244.012 149.016 C246.868 147.556 249.426 145.773 252 143.875 C252.301 143.657 252.301 143.657 253.823 142.552 C260.018 138.035 266.14 133.421 272.264 128.81 C277.96 124.521 283.687 120.278 289.438 116.062 C297.326 110.275 305.122 104.372 312.885 98.416 C326.479 88 326.479 88 329 88 C327.635 91.633 326.002 94.91 324.051 98.262 C323.458 99.285 322.865 100.308 322.254 101.362 C321.613 102.459 320.972 103.557 320.312 104.688 C319.638 105.849 318.965 107.01 318.291 108.172 C316.892 110.584 315.491 112.996 314.089 115.407 C310.863 120.954 307.648 126.507 304.438 132.062 C303.818 133.134 303.198 134.206 302.56 135.311 C297.697 143.745 292.939 152.234 288.203 160.74 C284.182 167.942 280.056 175.077 275.875 182.188 C270.892 190.667 266.091 199.225 261.422 207.881 C257.326 215.459 253.069 222.94 248.744 230.389 C248.268 231.214 247.791 232.038 247.301 232.887 C246.88 233.611 246.459 234.335 246.025 235.081 C244.368 238.183 243.875 240.701 243.88 244.157 C243.878 245.003 243.877 245.848 243.876 246.719 C243.879 247.644 243.883 248.568 243.886 249.52 C243.886 250.008 243.886 250.008 243.886 252.477 C243.887 255.707 243.895 258.938 243.902 262.168 C243.904 264.406 243.906 266.643 243.907 268.881 C243.91 274.775 243.92 280.669 243.931 286.562 C243.942 292.575 243.946 298.587 243.951 304.6 C243.962 316.4 243.979 328.2 244 340 C241.436 337.494 239.477 335.385 237.871 332.176 C234.124 325.184 229.532 318.729 225.062 312.188 C224.115 310.795 223.168 309.403 222.22 308.01 C215.443 298.06 208.585 288.167 201.642 278.332 C199.918 275.884 198.204 273.429 196.492 270.973 C190.369 262.188 184.186 253.454 177.894 244.789 C173.264 238.398 168.742 231.935 164.23 225.461 C160.373 219.935 156.46 214.453 152.5 209 C145.547 199.416 138.762 189.719 132 180 C131.356 179.075 130.713 178.15 130.049 177.197 C127.359 173.33 124.67 169.464 121.981 165.596 C116.399 157.567 110.795 149.552 105.184 141.543 C104.667 140.804 104.149 140.064 103.617 139.302 C102.478 137.681 101.334 136.065 100.184 134.452 C95.026 127.182 95.026 127.182 92.949 123.355 C90.601 119.313 87.809 115.887 84.812 112.312 C80.203 106.728 75.746 101.076 71.438 95.254 C68.377 91.14 65.216 87.105 62.062 83.062 C58.026 77.887 53.996 72.707 50 67.5 C46.102 62.423 42.181 57.364 38.25 52.312 C37.658 51.551 37.066 50.79 36.455 50.006 C33.455 46.151 30.453 42.298 27.449 38.445 C21.012 30.184 14.606 21.901 8.261 13.568 C8.011 13.239 8.011 13.239 6.742 11.574 C6.274 10.957 5.806 10.34 5.323 9.705 C4.134 8.173 2.887 6.686 1.633 5.207 C0 3 0 3 0 0 Z " fill="#FFFFFF" transform="translate(269,282)"/>
<path d="M0 0 C0.33 0.165 0.33 0.165 2 1 C2 66.01 2 131.02 2 198 C1.67 198 1.34 198 1 198 C0.67 189.42 0.34 180.84 0 172 C-2.64 174.64 -5.28 177.28 -8 180 C-9.842 181.616 -11.685 183.23 -13.543 184.828 C-16.881 187.779 -20.125 190.827 -23.375 193.875 C-28.312 198.504 -33.288 203.078 -38.336 207.586 C-42.429 211.295 -46.452 215.078 -50.473 218.865 C-53.577 221.779 -56.713 224.64 -59.93 227.43 C-64.232 231.17 -68.369 235.072 -72.5 239 C-87.23 253.005 -87.23 253.005 -94 257 C-94.164 240.075 -94.287 223.151 -94.363 206.225 C-94.399 198.366 -94.448 190.507 -94.528 182.648 C-94.598 175.795 -94.643 168.943 -94.659 162.09 C-94.668 158.464 -94.689 154.838 -94.74 151.212 C-94.797 147.157 -94.798 143.103 -94.795 139.047 C-94.82 137.855 -94.845 136.662 -94.871 135.433 C-94.8 127.253 -92.778 122.804 -87 117 C-90.332 119.928 -92.67 122.911 -95 126.688 C-98.146 131.769 -101.542 136.609 -105.062 141.438 C-109.779 147.911 -114.423 154.427 -119 161 C-124.005 168.181 -129.08 175.307 -134.224 182.389 C-138.596 188.414 -142.887 194.493 -147.131 200.608 C-147.364 200.94 -147.364 200.94 -148.539 202.621 C-148.943 203.203 -149.348 203.785 -149.764 204.385 C-151 206 -151 206 -154 209 C-154.33 168.08 -154.66 127.16 -155 85 C-147.08 80.71 -139.16 76.42 -131 72 C-119.5 65.5 -119.5 65.5 -113.809 62.266 C-106.75 58.276 -99.614 54.434 -92.477 50.587 C-87.062 47.666 -81.665 44.721 -76.312 41.688 C-65.879 35.775 -55.362 30.014 -44.857 24.229 C-40.908 22.054 -36.961 19.872 -33.017 17.687 C-30.409 16.241 -27.801 14.797 -25.192 13.354 C-23.958 12.67 -22.724 11.986 -21.491 11.301 C-15.791 8.135 -10.078 4.991 -4.293 1.98 C-3.901 1.776 -3.901 1.776 -1.915 0.739 C-1.283 0.495 -0.651 0.251 0 0 Z " fill="#FFFFFF" transform="translate(755,282)"/>
<path d="M0 0 C0.66 0 1.32 0 2 0 C2.474 0.928 2.949 1.856 3.438 2.812 C5.939 7.182 9.109 10.882 12.328 14.738 C15.387 18.433 18.286 22.244 21.188 26.062 C25.739 32.046 30.318 38.007 34.938 43.938 C35.516 44.68 36.094 45.422 36.689 46.187 C37.865 47.695 39.04 49.204 40.216 50.712 C43.23 54.577 46.24 58.445 49.25 62.312 C49.838 63.068 50.425 63.823 51.031 64.601 C55.156 69.906 59.26 75.226 63.344 80.562 C65.424 83.269 67.537 85.949 69.656 88.625 C70.292 89.431 70.927 90.238 71.582 91.068 C72.835 92.657 74.093 94.242 75.355 95.822 C78.247 99.496 80.304 102.632 82 107 C83.713 109.473 85.601 111.794 87.5 114.125 C88.49 115.356 89.48 116.588 90.469 117.82 C90.688 118.09 90.688 118.09 91.795 119.454 C94.589 123.039 95.249 124.931 95.241 129.41 C95.243 130.533 95.246 131.656 95.249 132.814 C95.245 133.43 95.245 133.43 95.227 136.55 C95.227 137.847 95.228 139.145 95.228 140.482 C95.229 144.042 95.217 147.601 95.203 151.161 C95.19 154.88 95.189 158.6 95.187 162.32 C95.181 169.364 95.164 176.408 95.144 183.452 C95.122 191.471 95.111 199.49 95.101 207.51 C95.08 224.007 95.045 240.503 95 257 C93.73 256.064 92.462 255.125 91.195 254.185 C90.489 253.663 89.783 253.14 89.055 252.602 C86.121 250.315 83.57 247.744 81 245.062 C77.184 241.166 73.327 237.432 69.176 233.891 C66.312 231.402 63.533 228.828 60.75 226.25 C60.193 225.734 59.635 225.218 59.061 224.686 C57.928 223.636 56.795 222.587 55.663 221.538 C53.095 219.163 50.517 216.8 47.938 214.438 C47.443 213.984 46.949 213.531 46.439 213.064 C44.022 210.85 41.603 208.638 39.18 206.43 C34.703 202.343 30.245 198.243 25.852 194.066 C25.487 193.72 25.487 193.72 23.639 191.968 C22.224 190.622 20.811 189.274 19.402 187.921 C13.8 182.6 8.033 177.936 2 173 C1.67 218.54 1.34 264.08 1 311 C0.67 311 0.34 311 0 311 C0 208.37 0 105.74 0 0 Z " fill="#FFFFFF" transform="translate(267,282)"/>
<path d="M0 0 C0.33 0 0.66 0 1 0 C1.458 39.635 1.81 79.271 2.021 118.908 C2.046 123.592 2.072 128.275 2.099 132.959 C2.104 133.891 2.109 134.824 2.115 135.784 C2.201 150.865 2.359 165.945 2.543 181.025 C2.73 196.508 2.841 211.991 2.882 227.475 C2.909 237.025 2.996 246.57 3.158 256.118 C3.264 262.673 3.296 269.226 3.27 275.782 C3.257 279.562 3.276 283.334 3.384 287.113 C3.98 309.064 3.98 309.064 -0.911 315.524 C-5.529 319.873 -10.694 322.828 -16.356 325.612 C-20.864 327.978 -24.891 331.011 -29 334 C-30.665 335.17 -32.331 336.337 -34 337.5 C-34.825 338.077 -35.65 338.655 -36.5 339.25 C-44 344.5 -44 344.5 -46.502 346.251 C-48.162 347.413 -49.821 348.575 -51.48 349.737 C-55.757 352.731 -60.035 355.723 -64.316 358.711 C-64.753 359.016 -64.753 359.016 -66.96 360.558 C-68.674 361.754 -70.387 362.949 -72.102 364.143 C-75.603 366.588 -79.088 369.038 -82.488 371.621 C-83.441 372.344 -84.394 373.067 -85.375 373.812 C-86.146 374.417 -86.917 375.022 -87.711 375.645 C-90.46 377.272 -92.862 377.544 -96 378 C-96.258 362.527 -96.451 347.054 -96.57 331.58 C-96.627 324.394 -96.704 317.209 -96.83 310.024 C-96.94 303.758 -97.011 297.492 -97.035 291.225 C-97.049 287.909 -97.088 284.596 -97.163 281.281 C-97.635 259.455 -97.635 259.455 -93.614 254.215 C-90.855 251.675 -88.249 249.845 -85 248 C-83.682 246.906 -82.383 245.787 -81.125 244.625 C-80.491 244.073 -79.857 243.522 -79.203 242.953 C-72.806 237.282 -66.585 231.411 -60.332 225.582 C-59.723 225.015 -59.114 224.448 -58.487 223.864 C-57.33 222.786 -56.175 221.708 -55.021 220.628 C-52.093 217.9 -49.128 215.228 -46.105 212.605 C-41.837 208.89 -37.728 205.021 -33.625 201.125 C-28.305 196.094 -22.96 191.105 -17.488 186.238 C-15.489 184.44 -13.511 182.625 -11.543 180.793 C-10.946 180.238 -10.349 179.682 -9.733 179.11 C-8.554 178.012 -7.376 176.911 -6.2 175.808 C-2.11 172 -2.11 172 -1 172 C-1.001 171.12 -1.002 170.239 -1.003 169.332 C-1.025 147.943 -1.041 126.554 -1.052 105.165 C-1.057 94.821 -1.064 84.478 -1.075 74.135 C-1.085 65.123 -1.092 56.111 -1.094 47.099 C-1.095 42.324 -1.098 37.549 -1.106 32.774 C-1.112 28.285 -1.115 23.797 -1.113 19.308 C-1.113 17.655 -1.115 16.003 -1.119 14.35 C-1.124 12.104 -1.123 9.858 -1.12 7.612 C-1.121 6.352 -1.122 5.092 -1.123 3.794 C-1 1 -1 1 0 0 Z " fill="#FFFFFF" transform="translate(757,281)"/>
<path d="M0 0 C0.33 0 0.66 0 1 0 C1.205 4.312 1.328 8.622 1.438 12.938 C1.467 13.544 1.467 13.544 1.615 16.611 C1.758 24.117 1.03 28.458 -4.091 34.062 C-4.721 34.701 -5.351 35.341 -6 36 C-7.005 37.178 -8.003 38.363 -8.992 39.555 C-9.951 40.663 -10.912 41.77 -11.875 42.875 C-15.456 47.017 -18.993 51.181 -22.438 55.438 C-26.578 60.539 -30.875 65.492 -35.194 70.442 C-38.447 74.18 -41.633 77.959 -44.75 81.812 C-47.593 85.326 -50.518 88.722 -53.562 92.062 C-57.142 95.994 -60.477 100.054 -63.766 104.23 C-66.461 107.571 -69.255 110.816 -72.062 114.062 C-76.545 119.251 -80.88 124.516 -85 130 C-87.835 129.659 -88.892 129.112 -90.902 127.023 C-91.574 126.149 -92.246 125.275 -92.938 124.375 C-96.674 119.635 -100.524 115.041 -104.5 110.5 C-108.235 106.219 -111.925 101.917 -115.5 97.5 C-119.578 92.466 -123.806 87.575 -128.06 82.69 C-132.047 78.109 -135.988 73.492 -139.901 68.849 C-142.776 65.44 -145.671 62.049 -148.581 58.669 C-154.156 52.192 -159.613 45.636 -165 39 C-167.97 35.37 -170.94 31.74 -174 28 C-174.33 88.06 -174.66 148.12 -175 210 C-178.002 208.499 -180.459 207.074 -183.168 205.164 C-183.97 204.601 -184.772 204.037 -185.598 203.457 C-186.453 202.852 -187.307 202.248 -188.188 201.625 C-189.077 200.999 -189.967 200.372 -190.884 199.727 C-193.591 197.821 -196.296 195.911 -199 194 C-200.5 192.943 -202 191.885 -203.5 190.828 C-208.358 187.403 -213.211 183.972 -218.063 180.541 C-226.301 174.718 -234.548 168.909 -242.812 163.125 C-243.227 162.835 -243.227 162.835 -245.327 161.365 C-249.659 158.335 -253.993 155.307 -258.328 152.281 C-266.944 146.265 -275.547 140.243 -284 134 C-280.626 134 -279.937 134.48 -277.254 136.352 C-276.508 136.867 -275.763 137.382 -274.995 137.912 C-274.192 138.478 -273.39 139.043 -272.562 139.625 C-272.147 139.914 -272.147 139.914 -270.042 141.375 C-267.356 143.242 -264.678 145.12 -262 147 C-260.169 148.28 -258.339 149.56 -256.508 150.84 C-253.895 152.667 -251.284 154.495 -248.676 156.329 C-247.89 156.881 -247.103 157.434 -246.293 158.004 C-245.607 158.487 -244.922 158.97 -244.216 159.467 C-241.5 161.346 -238.747 163.169 -236 165 C-236 126.06 -236 87.12 -236 47 C-231.672 49.597 -228.614 52.182 -225.188 55.75 C-219.741 61.31 -214.172 66.555 -208 71.312 C-207.34 71.869 -206.68 72.426 -206 73 C-206 73.66 -206 74.32 -206 75 C-205.459 75.213 -204.917 75.425 -204.359 75.645 C-201.147 77.49 -198.794 80.04 -196.25 82.688 C-192.214 86.812 -188.137 90.779 -183.719 94.5 C-181.718 96.246 -179.87 98.116 -178 100 C-177.99 99.09 -177.979 98.18 -177.969 97.242 C-177.871 88.678 -177.768 80.114 -177.661 71.55 C-177.605 67.146 -177.552 62.743 -177.503 58.34 C-177.455 54.093 -177.403 49.846 -177.347 45.599 C-177.327 43.976 -177.308 42.354 -177.291 40.731 C-177.267 38.463 -177.237 36.196 -177.205 33.928 C-177.19 32.636 -177.174 31.343 -177.158 30.012 C-177 27 -177 27 -176 25 C-175.847 23.188 -175.751 21.372 -175.684 19.555 C-175.642 18.478 -175.6 17.402 -175.557 16.293 C-175.517 15.165 -175.478 14.037 -175.438 12.875 C-175.416 12.307 -175.416 12.307 -175.307 9.434 C-175.2 6.623 -175.098 3.811 -175 1 C-170.848 4.889 -167.657 9.073 -164.438 13.75 C-163.372 15.277 -162.307 16.805 -161.242 18.332 C-160.973 18.72 -160.973 18.72 -159.608 20.686 C-157.109 24.281 -154.587 27.86 -152.062 31.438 C-151.57 32.137 -151.077 32.836 -150.57 33.556 C-146.943 38.694 -143.259 43.788 -139.562 48.875 C-134.515 55.828 -129.622 62.875 -124.794 69.982 C-121.36 75.032 -117.861 80.029 -114.312 85 C-109.308 92.038 -104.463 99.182 -99.661 106.36 C-98.852 107.567 -98.043 108.774 -97.233 109.981 C-96.087 111.686 -94.947 113.395 -93.809 115.105 C-93.478 115.601 -93.478 115.601 -91.802 118.11 C-90.001 120.998 -88.471 123.933 -87 127 C-85.248 124.372 -83.584 121.704 -81.93 119.014 C-73.302 105.031 -63.875 91.597 -54.375 78.197 C-51.085 73.554 -47.84 68.883 -44.625 64.188 C-37.561 53.874 -30.368 43.651 -23.188 33.418 C-21.396 30.862 -19.604 28.306 -17.812 25.75 C-17.525 25.34 -17.525 25.34 -16.068 23.264 C-13.26 19.254 -10.468 15.233 -7.711 11.188 C-7.199 10.438 -6.688 9.688 -6.161 8.915 C-5.2 7.502 -4.241 6.088 -3.286 4.671 C-2.216 3.097 -1.112 1.545 0 0 Z " fill="#FFFFFF" transform="translate(599,494)"/>
<path d="M0 0 C0 3.524 -0.645 4.236 -2.711 6.992 C-3.291 7.773 -3.871 8.553 -4.469 9.358 C-5.098 10.188 -5.727 11.019 -6.375 11.875 C-7.017 12.733 -7.659 13.592 -8.32 14.476 C-10.205 16.991 -12.1 19.497 -14 22 C-14.468 22.618 -14.937 23.236 -15.419 23.873 C-18.252 27.603 -21.122 31.304 -24 35 C-25.078 36.388 -26.156 37.776 -27.234 39.164 C-31.43 44.563 -35.631 49.958 -39.832 55.353 C-47.25 64.88 -54.649 74.421 -62 84 C-63.666 86.167 -65.333 88.334 -67 90.5 C-67.833 91.583 -68.667 92.667 -69.5 93.75 C-74.5 100.25 -74.5 100.25 -75.751 101.875 C-76.582 102.957 -77.413 104.038 -78.243 105.121 C-80.35 107.865 -82.467 110.6 -84.605 113.32 C-89.104 119.065 -93.275 124.879 -97.117 131.09 C-99.307 134.474 -101.66 137.703 -104.062 140.938 C-108.436 146.827 -112.684 152.792 -116.875 158.812 C-121.921 166.057 -127.035 173.245 -132.224 180.388 C-136.595 186.413 -140.887 192.492 -145.131 198.608 C-145.364 198.94 -145.364 198.94 -146.539 200.621 C-146.943 201.203 -147.348 201.785 -147.764 202.385 C-149 204 -149 204 -152 207 C-152.33 166.08 -152.66 125.16 -153 83 C-145.08 78.71 -137.16 74.42 -129 70 C-117.5 63.5 -117.5 63.5 -111.809 60.266 C-104.75 56.276 -97.614 52.434 -90.477 48.587 C-85.062 45.666 -79.665 42.721 -74.312 39.688 C-65.775 34.85 -57.18 30.115 -48.583 25.385 C-47.318 24.689 -46.054 23.993 -44.789 23.297 C-44.155 22.948 -43.52 22.598 -42.866 22.239 C-38.893 20.049 -34.926 17.847 -30.966 15.635 C-28.339 14.169 -25.711 12.706 -23.082 11.244 C-21.834 10.548 -20.587 9.85 -19.34 9.15 C-13.017 5.599 -6.896 2.282 0 0 Z " fill="#FFFFFF" transform="translate(753,284)"/>
<path d="M0 0 C5.268 1.597 9.036 4.982 13.25 8.375 C19.261 13.136 25.33 17.746 31.625 22.125 C37.787 26.417 43.837 30.825 49.829 35.351 C56.715 40.55 63.657 45.671 70.617 50.77 C73.272 52.716 75.905 54.684 78.508 56.699 C78.991 57.069 78.991 57.069 81.438 58.938 C82.241 59.565 83.044 60.193 83.871 60.84 C86 62 86 62 87.91 61.949 C90.866 60.607 93.399 58.792 96 56.875 C96.602 56.438 97.204 56.002 97.823 55.552 C104.018 51.035 110.14 46.421 116.264 41.81 C121.96 37.521 127.687 33.278 133.438 29.062 C141.326 23.275 149.122 17.372 156.885 11.416 C170.479 1 170.479 1 173 1 C171.635 4.633 170.002 7.91 168.051 11.262 C167.754 11.773 167.754 11.773 166.254 14.362 C165.613 15.459 164.972 16.557 164.312 17.688 C163.638 18.849 162.965 20.01 162.291 21.172 C160.892 23.584 159.491 25.996 158.089 28.407 C154.863 33.954 151.648 39.507 148.438 45.062 C147.818 46.134 147.198 47.206 146.56 48.311 C141.697 56.745 136.939 65.234 132.203 73.74 C128.182 80.942 124.056 88.077 119.875 95.188 C115.422 102.762 111.106 110.39 106.938 118.125 C102.721 125.937 98.369 133.656 93.875 141.312 C93.318 142.269 92.761 143.225 92.187 144.209 C91.669 145.085 91.151 145.961 90.617 146.863 C90.159 147.64 89.702 148.416 89.23 149.216 C88 151 88 151 86 152 C85.589 151.247 85.177 150.494 84.753 149.719 C77.097 135.726 69.378 121.785 61.292 108.033 C56.8 100.39 52.387 92.704 48 85 C43.011 76.24 37.976 67.509 32.875 58.812 C27.503 49.652 22.294 40.409 17.14 31.124 C12.785 23.313 8.247 15.627 3.554 8.015 C3.085 7.248 2.616 6.481 2.133 5.691 C1.719 5.023 1.306 4.355 0.879 3.666 C0 2 0 2 0 0 Z " fill="#FFFFFF" transform="translate(425,369)"/>
<path d="M0 0 C0 3.602 -0.633 3.946 -2.953 6.532 C-6.736 11.425 -6.845 15.459 -6.759 21.491 C-6.764 22.007 -6.764 22.007 -6.787 24.618 C-6.811 28.062 -6.792 31.505 -6.773 34.949 C-6.781 37.423 -6.792 39.897 -6.805 42.371 C-6.828 47.691 -6.832 53.01 -6.82 58.33 C-6.802 66.021 -6.817 73.712 -6.84 81.403 C-6.877 93.883 -6.887 106.363 -6.88 118.842 C-6.873 130.962 -6.879 143.081 -6.902 155.201 C-6.904 155.948 -6.905 156.696 -6.907 157.466 C-6.914 161.217 -6.921 164.968 -6.929 168.719 C-6.991 199.813 -7.009 230.906 -7 262 C-5.35 261.34 -3.7 260.68 -2 260 C-5.733 263.982 -9.65 266.988 -14.188 270 C-20.118 274.005 -25.965 278.101 -31.75 282.312 C-39.223 287.747 -46.77 293.067 -54.364 298.331 C-57.643 300.612 -60.851 302.878 -63.949 305.402 C-66 307 -66 307 -68 307 C-68 246.94 -68 186.88 -68 125 C-67.34 125 -66.68 125 -66 125 C-65.67 148.76 -65.34 172.52 -65 197 C-57.979 190.564 -51.184 184.229 -44.512 177.48 C-42.419 175.414 -40.3 173.468 -38.062 171.562 C-33.96 168.067 -30.221 164.249 -26.438 160.418 C-23.026 156.981 -19.529 153.712 -15.816 150.598 C-15.517 150.334 -15.517 150.334 -14 149 C-13.149 148.396 -12.298 147.792 -11.422 147.17 C-7.695 142.292 -8.341 137.66 -8.432 131.682 C-8.432 131.058 -8.432 131.058 -8.43 127.897 C-8.433 124.479 -8.458 121.063 -8.493 117.646 C-8.524 114.072 -8.527 110.498 -8.533 106.924 C-8.549 100.159 -8.59 93.395 -8.64 86.631 C-8.696 78.928 -8.723 71.226 -8.748 63.523 C-8.801 47.682 -8.889 31.841 -9 16 C-9.33 16.165 -9.33 16.165 -11 17 C-9.699 13.478 -8.163 10.485 -6.062 7.375 C-5.558 6.62 -5.054 5.864 -4.535 5.086 C-3.144 3.195 -1.709 1.602 0 0 Z " fill="#FFFFFF" transform="translate(668,397)"/>
<path d="M0 0 C2.927 2.891 5.622 5.623 7.91 9.047 C8.418 9.8 8.927 10.553 9.45 11.329 C9.982 12.128 10.514 12.927 11.062 13.75 C12.223 15.469 13.384 17.188 14.547 18.906 C15.128 19.766 15.708 20.626 16.307 21.512 C18.764 25.123 21.283 28.689 23.812 32.25 C28.581 38.973 33.299 45.73 38 52.5 C43.363 60.224 48.75 67.931 54.195 75.598 C55.073 76.835 55.942 78.079 56.802 79.33 C58 81 58 81 60.34 83.699 C62.915 88.82 62.209 93.636 61.812 99.25 C61.755 100.351 61.698 101.452 61.639 102.586 C61.178 110.643 61.178 110.643 60 113 C59.879 115.338 59.822 117.679 59.795 120.02 C59.785 120.742 59.775 121.464 59.765 122.208 C59.733 124.6 59.708 126.991 59.684 129.383 C59.663 131.039 59.642 132.695 59.621 134.352 C59.565 138.715 59.516 143.078 59.468 147.441 C59.418 151.892 59.362 156.342 59.307 160.793 C59.199 169.529 59.098 178.264 59 187 C51.665 180.759 51.665 180.759 48.281 177.562 C47.659 176.977 47.036 176.392 46.395 175.789 C45.132 174.596 43.868 173.404 42.605 172.211 C38.928 168.754 35.194 165.436 31.268 162.262 C30.849 161.845 30.431 161.429 30 161 C30 160.34 30 159.68 30 159 C29.704 158.868 29.704 158.868 28.203 158.199 C25.92 156.956 24.526 155.696 22.75 153.812 C20.28 151.263 17.758 148.872 15.062 146.562 C11.405 143.418 8.02 140.065 4.664 136.602 C3 135 3 135 1 134 C0.67 172.61 0.34 211.22 0 251 C-0.33 251 -0.66 251 -1 251 C-1.032 233.917 -1.051 216.833 -1.062 199.75 C-1.063 198.45 -1.064 197.149 -1.065 195.809 C-1.092 150.059 -0.871 104.312 -0.5 58.562 C-0.494 57.824 -0.488 57.086 -0.482 56.326 C-0.33 37.551 -0.17 18.775 0 0 Z " fill="#FFFFFF" transform="translate(363,408)"/>
<path d="M0 0 C0.281 16.612 0.492 33.223 0.622 49.837 C0.683 57.552 0.768 65.266 0.905 72.98 C1.025 79.709 1.102 86.436 1.129 93.166 C1.145 96.725 1.181 100.282 1.269 103.841 C1.852 128.389 1.852 128.389 -4.18 135.109 C-6.645 137.373 -9.19 139.173 -12 141 C-13.351 142.146 -14.69 143.307 -16 144.5 C-16.309 144.763 -16.309 144.763 -17.875 146.094 C-20.694 148.623 -23.339 151.306 -26 154 C-29.804 157.851 -33.663 161.512 -37.797 165.012 C-41.475 168.331 -44.908 171.904 -48.345 175.47 C-48.875 176.011 -49.404 176.552 -49.949 177.109 C-50.417 177.594 -50.884 178.078 -51.366 178.577 C-53 180 -53 180 -58 183 C-58 158.91 -58 134.82 -58 110 C-58.99 109.67 -59.98 109.34 -61 109 C-61.036 104.561 -60.993 100.126 -60.938 95.688 C-60.948 94.444 -60.959 93.201 -60.971 91.92 C-60.801 82.683 -58.657 77.237 -53 70 C-52.508 69.325 -52.017 68.651 -51.51 67.956 C-50.162 66.112 -48.775 64.305 -47.375 62.5 C-42.92 56.659 -38.68 50.708 -34.562 44.625 C-29.214 36.727 -23.702 28.967 -18.086 21.258 C-16.063 18.48 -14.069 15.685 -12.102 12.867 C-11.65 12.223 -11.198 11.579 -10.733 10.915 C-9.899 9.722 -9.069 8.526 -8.245 7.325 C-3.106 0 -3.106 0 0 0 Z " fill="#FFFFFF" transform="translate(660,412)"/>
<path d="M0 0 C13.088 6.366 25.879 13.258 38.67 20.196 C41.844 21.915 45.021 23.627 48.199 25.336 C58.917 31.106 69.57 36.977 80.154 42.989 C87.497 47.159 94.866 51.278 102.25 55.375 C102.809 55.685 102.809 55.685 105.638 57.255 C110.912 60.181 116.188 63.104 121.464 66.026 C123.876 67.362 126.288 68.7 128.7 70.037 C130.372 70.964 132.045 71.889 133.718 72.814 C140.87 76.78 147.953 80.852 155 85 C152.555 87.562 150.248 89.646 147.199 91.445 C146.478 91.877 145.756 92.309 145.012 92.754 C144.629 92.98 144.629 92.98 142.688 94.125 C136.9 97.595 131.202 101.138 125.625 104.938 C119.644 108.983 113.546 112.814 107.375 116.562 C106.521 117.088 105.667 117.613 104.788 118.154 C103.979 118.641 103.17 119.127 102.336 119.629 C101.978 119.846 101.978 119.846 100.166 120.944 C97.786 122.104 95.606 122.589 93 123 C92.664 122.558 92.328 122.117 91.981 121.662 C85.786 113.528 79.57 105.413 73.239 97.385 C64.616 86.447 56.092 75.433 47.609 64.387 C44.504 60.35 41.377 56.331 38.25 52.312 C37.658 51.551 37.066 50.79 36.455 50.006 C33.455 46.151 30.453 42.298 27.449 38.445 C21.012 30.184 14.606 21.901 8.261 13.568 C8.011 13.239 8.011 13.239 6.742 11.574 C6.274 10.957 5.806 10.34 5.323 9.705 C4.134 8.173 2.887 6.686 1.633 5.207 C0 3 0 3 0 0 Z " fill="#FFFFFF" transform="translate(269,282)"/>
<path d="M0 0 C0.793 16.011 1.139 31.971 1.098 48 C1.096 50.185 1.094 52.371 1.093 54.556 C1.09 60.217 1.08 65.879 1.069 71.541 C1.058 77.354 1.054 83.167 1.049 88.98 C1.038 100.32 1.021 111.66 1 123 C-4.517 117.535 -4.517 117.535 -6.402 114.715 C-6.81 114.113 -7.218 113.511 -7.637 112.89 C-8.066 112.246 -8.495 111.601 -8.938 110.938 C-9.911 109.499 -10.885 108.062 -11.859 106.625 C-12.37 105.87 -12.882 105.114 -13.408 104.336 C-16.129 100.343 -18.91 96.392 -21.688 92.438 C-27.482 84.177 -33.254 75.901 -39.005 67.61 C-42.343 62.802 -45.697 58.008 -49.09 53.238 C-49.738 52.324 -50.385 51.41 -51.053 50.469 C-52.279 48.74 -53.511 47.014 -54.748 45.293 C-55.294 44.522 -55.84 43.751 -56.402 42.957 C-56.882 42.286 -57.361 41.616 -57.855 40.925 C-59.033 38.945 -59.566 37.252 -60 35 C-59.339 34.649 -58.677 34.298 -57.996 33.936 C-51.016 30.185 -44.264 26.162 -37.562 21.938 C-36.534 21.293 -35.505 20.648 -34.444 19.984 C-29.311 16.757 -24.205 13.495 -19.137 10.168 C-18.227 9.571 -17.316 8.973 -16.379 8.358 C-14.663 7.227 -12.952 6.091 -11.244 4.949 C-10.478 4.442 -9.712 3.936 -8.922 3.414 C-8.258 2.97 -7.593 2.526 -6.909 2.069 C-4.72 0.843 -2.542 0 0 0 Z " fill="#FFFFFF" transform="translate(423,370)"/>
<path d="M0 0 C-1.365 3.633 -2.998 6.91 -4.949 10.262 C-5.246 10.773 -5.246 10.773 -6.746 13.362 C-7.387 14.459 -8.028 15.557 -8.688 16.688 C-9.362 17.849 -10.035 19.01 -10.709 20.172 C-12.108 22.584 -13.509 24.996 -14.911 27.407 C-18.137 32.954 -21.352 38.507 -24.562 44.062 C-25.182 45.134 -25.802 46.206 -26.44 47.311 C-31.303 55.745 -36.061 64.234 -40.797 72.74 C-44.818 79.942 -48.944 87.077 -53.125 94.188 C-57.578 101.762 -61.894 109.39 -66.062 117.125 C-70.291 124.964 -74.668 132.7 -79.188 140.375 C-79.47 140.857 -79.47 140.857 -80.901 143.297 C-81.422 144.176 -81.943 145.055 -82.48 145.961 C-82.943 146.743 -83.406 147.524 -83.884 148.33 C-84.068 148.605 -84.068 148.605 -85 150 C-85.33 150 -85.66 150 -86 150 C-86.232 138.795 -86.41 127.591 -86.518 116.384 C-86.57 111.18 -86.641 105.977 -86.754 100.774 C-86.863 95.749 -86.923 90.725 -86.949 85.699 C-86.967 83.785 -87.003 81.871 -87.057 79.958 C-87.464 64.977 -87.464 64.977 -83.864 60.115 C-81.33 58.062 -78.872 56.531 -76 55 C-74.495 53.906 -73.004 52.792 -71.535 51.648 C-70.046 50.555 -68.555 49.464 -67.062 48.375 C-66.249 47.778 -65.435 47.181 -64.597 46.566 C-62.066 44.709 -59.533 42.854 -57 41 C-47.016 33.69 -37.08 26.329 -27.25 18.812 C-20.962 14.009 -14.67 9.212 -8.312 4.5 C-7.695 4.037 -7.077 3.574 -6.44 3.097 C-2.234 0 -2.234 0 0 0 Z " fill="#FFFFFF" transform="translate(598,370)"/>
<path d="M0 0 C5.177 2.876 10.086 5.604 15 8.812 C16.191 9.586 17.383 10.36 18.574 11.133 C19.251 11.573 19.929 12.013 20.626 12.466 C26.742 16.419 32.89 20.323 39.029 24.24 C41.07 25.544 43.106 26.853 45.139 28.169 C46.996 29.357 48.87 30.518 50.763 31.647 C51.588 32.151 52.412 32.656 53.262 33.176 C53.987 33.604 54.712 34.033 55.46 34.474 C57 36 57 36 57.358 38.478 C56.816 42.296 54.57 44.801 52.25 47.75 C51.232 49.09 50.215 50.431 49.199 51.773 C48.935 52.121 48.935 52.121 47.595 53.878 C45.006 57.322 42.535 60.847 40.062 64.375 C39.052 65.811 38.042 67.247 37.031 68.684 C36.021 70.122 35.01 71.561 34 73 C27.239 82.62 20.43 92.2 13.533 101.722 C9.633 107.11 5.781 112.528 2 118 C1.34 117.67 0.68 117.34 0 117 C0 78.39 0 39.78 0 0 Z " fill="#FFFFFF" transform="translate(602,370)"/>
<path d="M0 0 C0.33 0 0.66 0 1 0 C1.205 4.312 1.328 8.622 1.438 12.938 C1.467 13.544 1.467 13.544 1.615 16.611 C1.758 24.117 1.03 28.458 -4.091 34.062 C-4.721 34.701 -5.351 35.341 -6 36 C-7.005 37.178 -8.003 38.363 -8.992 39.555 C-9.951 40.663 -10.912 41.77 -11.875 42.875 C-15.456 47.017 -18.993 51.181 -22.438 55.438 C-26.578 60.539 -30.875 65.492 -35.194 70.442 C-38.447 74.18 -41.633 77.959 -44.75 81.812 C-47.593 85.326 -50.518 88.722 -53.562 92.062 C-57.142 95.994 -60.477 100.054 -63.766 104.23 C-66.461 107.571 -69.255 110.816 -72.062 114.062 C-76.545 119.251 -80.88 124.516 -85 130 C-87.835 129.659 -88.892 129.112 -90.902 127.023 C-91.574 126.149 -92.246 125.275 -92.938 124.375 C-96.674 119.635 -100.524 115.041 -104.5 110.5 C-108.235 106.219 -111.925 101.917 -115.5 97.5 C-119.578 92.466 -123.806 87.575 -128.06 82.69 C-132.047 78.109 -135.988 73.492 -139.901 68.849 C-142.776 65.44 -145.671 62.049 -148.581 58.669 C-154.156 52.192 -159.613 45.636 -165 39 C-167.97 35.37 -170.94 31.74 -174 28 C-174.33 88.06 -174.66 148.12 -175 210 C-179 208 -179 208 -180 206 C-179.34 206 -178.68 206 -178 206 C-177.996 205.079 -177.992 204.159 -177.987 203.21 C-177.884 180.836 -177.775 158.462 -177.661 136.088 C-177.605 125.268 -177.552 114.448 -177.503 103.628 C-177.46 94.2 -177.414 84.773 -177.363 75.345 C-177.337 70.351 -177.312 65.356 -177.291 60.362 C-177.271 55.665 -177.247 50.969 -177.22 46.272 C-177.21 44.544 -177.202 42.816 -177.197 41.089 C-177.188 38.738 -177.174 36.387 -177.158 34.036 C-177.152 32.718 -177.145 31.4 -177.139 30.042 C-177 27 -177 27 -176 25 C-175.847 23.188 -175.751 21.372 -175.684 19.555 C-175.642 18.478 -175.6 17.402 -175.557 16.293 C-175.537 15.729 -175.537 15.729 -175.438 12.875 C-175.416 12.307 -175.416 12.307 -175.307 9.434 C-175.2 6.623 -175.098 3.811 -175 1 C-170.848 4.889 -167.657 9.073 -164.438 13.75 C-163.372 15.277 -162.307 16.805 -161.242 18.332 C-160.703 19.109 -160.164 19.886 -159.608 20.686 C-157.109 24.281 -154.587 27.86 -152.062 31.438 C-151.57 32.137 -151.077 32.836 -150.57 33.556 C-146.943 38.694 -143.259 43.788 -139.562 48.875 C-134.515 55.828 -129.622 62.875 -124.794 69.982 C-121.36 75.032 -117.861 80.029 -114.312 85 C-109.308 92.038 -104.463 99.182 -99.661 106.36 C-98.852 107.567 -98.043 108.774 -97.233 109.981 C-96.087 111.686 -94.947 113.395 -93.809 115.105 C-93.478 115.601 -93.478 115.601 -91.802 118.11 C-90.001 120.998 -88.471 123.933 -87 127 C-85.248 124.372 -83.584 121.704 -81.93 119.014 C-73.302 105.031 -63.875 91.597 -54.375 78.197 C-51.085 73.554 -47.84 68.883 -44.625 64.188 C-37.561 53.874 -30.368 43.651 -23.188 33.418 C-21.396 30.862 -19.604 28.306 -17.812 25.75 C-17.525 25.34 -17.525 25.34 -16.068 23.264 C-13.26 19.254 -10.468 15.233 -7.711 11.188 C-7.199 10.438 -6.688 9.688 -6.161 8.915 C-5.2 7.502 -4.241 6.088 -3.286 4.671 C-2.216 3.097 -1.112 1.545 0 0 Z " fill="#FFFFFF" transform="translate(599,494)"/>
<path d="M0 0 C1.634 4.979 -0.183 8.768 -1.812 13.562 C-1.97 14.027 -1.97 14.027 -2.766 16.379 C-9.667 35.951 -20.691 53.035 -35 68 C-35.305 68.336 -35.305 68.336 -36.848 70.039 C-49.138 83.139 -66.242 92.908 -83 99 C-83.99 99 -84.98 99 -86 99 C-86.33 99.66 -86.66 100.32 -87 101 C-89.776 101.768 -92.497 102.418 -95.312 103 C-96.128 103.174 -96.944 103.347 -97.785 103.526 C-115.968 107.347 -115.968 107.347 -125 107 C-125 107.66 -125 108.32 -125 109 C-180.119 109.046 -235.238 109.081 -290.356 109.102 C-296.863 109.105 -303.369 109.107 -309.875 109.11 C-311.171 109.11 -312.466 109.111 -313.801 109.111 C-334.778 109.12 -355.755 109.136 -376.732 109.154 C-398.254 109.173 -419.777 109.184 -441.299 109.188 C-454.581 109.191 -467.862 109.2 -481.144 109.216 C-490.25 109.226 -499.357 109.23 -508.463 109.227 C-513.717 109.226 -518.972 109.228 -524.227 109.238 C-529.04 109.248 -533.853 109.249 -538.666 109.242 C-540.405 109.241 -542.144 109.243 -543.883 109.25 C-552.465 109.279 -560.631 109.146 -569 107 C-570.665 106.659 -572.332 106.325 -574 106 C-578.167 105.167 -578.167 105.167 -599 101 C-599 100.34 -599 99.68 -599 99 C-599.677 98.893 -600.354 98.786 -601.051 98.676 C-620.268 94.272 -641.996 79.465 -654 64 C-655.223 62.682 -656.453 61.37 -657.688 60.062 C-662.923 54.212 -666.935 47.688 -671 41 C-671.566 40.078 -672.132 39.157 -672.715 38.207 C-675.306 33.808 -675.306 33.808 -676 32 C-675.67 31.01 -675.34 30.02 -675 29 C-674.348 30.134 -673.695 31.269 -673.023 32.438 C-664.241 47.607 -664.241 47.607 -659 54 C-658.34 54.887 -657.68 55.774 -657 56.688 C-654.582 59.483 -651.861 61.665 -649 64 C-648.639 64.382 -648.639 64.382 -646.812 66.312 C-642.015 70.897 -636.352 75.883 -630 78 C-628.325 79.323 -626.659 80.657 -625 82 C-621.472 84.469 -619.321 85.37 -615 85 C-615 86.32 -615 87.64 -615 89 C-614.283 89.135 -613.567 89.271 -612.828 89.41 C-610.093 89.981 -607.434 90.662 -604.75 91.438 C-603.879 91.684 -603.007 91.93 -602.109 92.184 C-600 93 -600 93 -599 95 C-597.172 95.527 -597.172 95.527 -594.75 95.938 C-590.558 96.689 -586.448 97.607 -582.312 98.625 C-577.715 99.707 -573.705 100.328 -569 100 C-569 100.66 -569 101.32 -569 102 C-543.664 103.594 -518.338 104.154 -492.956 104.131 C-489.243 104.128 -485.53 104.132 -481.817 104.135 C-474.576 104.139 -467.336 104.138 -460.096 104.135 C-454.178 104.133 -448.26 104.133 -442.342 104.134 C-441.916 104.134 -441.916 104.134 -439.762 104.134 C-438.03 104.135 -436.298 104.135 -434.566 104.135 C-418.393 104.138 -402.22 104.135 -386.047 104.129 C-372.329 104.125 -358.611 104.126 -344.893 104.13 C-328.823 104.136 -312.752 104.138 -296.682 104.135 C-294.946 104.134 -293.211 104.134 -291.475 104.134 C-290.622 104.134 -289.769 104.134 -288.89 104.133 C-283.034 104.133 -277.179 104.134 -271.323 104.136 C-238.753 104.148 -206.186 104.087 -173.619 103.644 C-171.6 103.617 -169.581 103.594 -167.561 103.571 C-154.124 103.41 -140.736 103.045 -127.329 102.086 C-126.245 102.01 -125.162 101.934 -124.045 101.856 C-113.446 101.025 -102.887 99.296 -92.777 95.926 C-90.277 95.092 -87.971 94.593 -85.375 94.188 C-80.164 93.21 -75.583 91.29 -70.762 89.121 C-68.157 88.064 -65.767 87.449 -63 87 C-63 86.34 -63 85.68 -63 85 C-62.423 84.753 -61.845 84.505 -61.25 84.25 C-59 83 -59 83 -57.25 81.188 C-54.689 78.698 -51.981 77.058 -48.941 75.211 C-46.446 73.654 -44.241 71.905 -42 70 C-41.703 69.754 -41.703 69.754 -40.199 68.512 C-28.058 58.257 -28.058 58.257 -25.023 51.98 C-24 50 -24 50 -22.152 48.223 C-19.3 45.277 -17.522 42.017 -15.562 38.438 C-15.166 37.719 -14.77 37 -14.362 36.259 C-7.981 24.566 -3.837 12.723 0 0 Z " fill="#FFFFFF" transform="translate(855,731)"/>
<path d="M0 0 C1.634 4.979 -0.183 8.768 -1.812 13.562 C-1.97 14.027 -1.97 14.027 -2.766 16.379 C-9.667 35.951 -20.691 53.035 -35 68 C-35.305 68.336 -35.305 68.336 -36.848 70.039 C-49.138 83.139 -66.242 92.908 -83 99 C-83.99 99 -84.98 99 -86 99 C-86.33 99.66 -86.66 100.32 -87 101 C-89.776 101.768 -92.497 102.418 -95.312 103 C-96.128 103.174 -96.944 103.347 -97.785 103.526 C-115.968 107.347 -115.968 107.347 -125 107 C-125 107.66 -125 108.32 -125 109 C-265.58 109 -406.16 109 -551 109 C-551 108.34 -551 107.68 -551 107 C-550.574 107 -550.574 107 -548.42 106.997 C-497.873 106.939 -447.326 106.865 -396.78 106.771 C-390.699 106.76 -384.619 106.749 -378.539 106.738 C-377.934 106.736 -377.934 106.736 -374.871 106.731 C-355.318 106.696 -335.765 106.671 -316.211 106.65 C-296.122 106.628 -276.032 106.595 -255.943 106.551 C-243.564 106.525 -231.185 106.507 -218.806 106.501 C-210.297 106.495 -201.789 106.479 -193.28 106.454 C-188.384 106.44 -183.487 106.431 -178.591 106.435 C-151.212 106.452 -124.802 105.185 -98 99 C-96.926 98.754 -95.852 98.508 -94.746 98.254 C-86.264 96.118 -78.24 92.737 -70.5 88.688 C-67 87 -67 87 -63 87 C-63 86.34 -63 85.68 -63 85 C-62.423 84.753 -61.845 84.505 -61.25 84.25 C-59 83 -59 83 -57.25 81.188 C-54.689 78.698 -51.981 77.058 -48.941 75.211 C-46.446 73.654 -44.241 71.905 -42 70 C-41.406 69.509 -40.811 69.018 -40.199 68.512 C-28.058 58.257 -28.058 58.257 -25.023 51.98 C-24 50 -24 50 -22.152 48.223 C-19.3 45.277 -17.522 42.017 -15.562 38.438 C-15.166 37.719 -14.77 37 -14.362 36.259 C-7.981 24.566 -3.837 12.723 0 0 Z " fill="#FFFFFF" transform="translate(855,731)"/>
<path d="M0 0 C3.823 4.518 6.688 9.376 9.645 14.473 C11.856 18.234 14.186 21.647 17 25 C17.619 25.825 18.238 26.65 18.875 27.5 C21.33 30.388 24.066 32.605 27 35 C27.722 35.763 28.444 36.526 29.188 37.312 C33.985 41.897 39.648 46.883 46 49 C47.675 50.323 49.341 51.657 51 53 C54.528 55.469 56.679 56.37 61 56 C61 57.32 61 58.64 61 60 C61.717 60.135 62.433 60.271 63.172 60.41 C65.907 60.981 68.566 61.662 71.25 62.438 C72.121 62.684 72.993 62.93 73.891 63.184 C76 64 76 64 77 66 C78.828 66.527 78.828 66.527 81.25 66.938 C85.442 67.689 89.552 68.607 93.688 69.625 C98.285 70.707 102.295 71.328 107 71 C107 71.66 107 72.32 107 73 C108.093 72.959 109.186 72.918 110.312 72.875 C114 73 114 73 117 75 C119.699 75.414 119.699 75.414 122.688 75.625 C123.681 75.7 124.675 75.775 125.699 75.852 C126.458 75.901 127.218 75.95 128 76 C128 76.33 128 76.66 128 77 C115.005 80.033 102.183 77.419 89.442 74.54 C85.309 73.626 81.154 72.815 77 72 C77 71.34 77 70.68 77 70 C76.323 69.893 75.646 69.786 74.949 69.676 C55.732 65.272 34.004 50.465 22 35 C20.777 33.682 19.547 32.37 18.312 31.062 C11.767 23.748 0 9.952 0 0 Z " fill="#FFFFFF" transform="translate(179,760)"/>
<path d="M0 0 C4.009 3.778 7.173 7.796 10.312 12.312 C10.54 12.635 10.54 12.635 11.689 14.268 C12.797 15.842 13.899 17.421 15 19 C14.67 19.66 14.34 20.32 14 21 C10.04 15.72 6.08 10.44 2 5 C1.959 8.217 1.918 11.435 1.875 14.75 C1.866 15.254 1.866 15.254 1.82 17.804 C1.815 18.606 1.81 19.408 1.805 20.234 C1.794 21.051 1.784 21.868 1.773 22.71 C2.022 25.219 2.743 26.834 4 29 C3.01 28.34 2.02 27.68 1 27 C0.67 87.06 0.34 147.12 0 209 C-4 207 -4 207 -5 205 C-4.34 205 -3.68 205 -3 205 C-2.996 204.079 -2.992 203.159 -2.987 202.21 C-2.884 179.836 -2.775 157.462 -2.661 135.088 C-2.605 124.268 -2.552 113.448 -2.503 102.628 C-2.46 93.2 -2.414 83.773 -2.363 74.345 C-2.337 69.351 -2.312 64.356 -2.291 59.362 C-2.271 54.665 -2.247 49.969 -2.22 45.272 C-2.21 43.544 -2.202 41.816 -2.197 40.089 C-2.188 37.738 -2.174 35.387 -2.158 33.036 C-2.152 31.718 -2.145 30.4 -2.139 29.042 C-2 26 -2 26 -1 24 C-0.847 22.188 -0.751 20.372 -0.684 18.555 C-0.642 17.478 -0.6 16.402 -0.557 15.293 C-0.537 14.729 -0.537 14.729 -0.438 11.875 C-0.416 11.307 -0.416 11.307 -0.307 8.434 C-0.2 5.623 -0.098 2.811 0 0 Z " fill="#FFFFFF" transform="translate(424,495)"/>
<path d="M0 0 C0.33 0 0.66 0 1 0 C1.793 16.011 2.139 31.971 2.098 48 C2.096 50.185 2.094 52.371 2.093 54.556 C2.09 60.217 2.08 65.879 2.069 71.541 C2.058 77.354 2.054 83.167 2.049 88.98 C2.038 100.32 2.021 111.66 2 123 C-1.642 119.442 -4.539 115.966 -7.312 111.688 C-8.01 110.619 -8.707 109.55 -9.426 108.449 C-9.945 107.641 -10.465 106.833 -11 106 C-10.835 105.67 -10.835 105.67 -10 104 C-7.03 108.29 -4.06 112.58 -1 117 C-0.67 78.39 -0.34 39.78 0 0 Z " fill="#FFFFFF" transform="translate(422,370)"/>
<path d="M0 0 C0.33 0 0.66 0 1 0 C1.33 33 1.66 66 2 100 C3.485 99.835 3.485 99.835 11 99 C7.835 102.255 4.672 105.32 1 108 C0.34 108 -0.32 108 -1 108 C-1.023 94.214 -1.041 80.428 -1.052 66.642 C-1.057 60.241 -1.064 53.84 -1.075 47.439 C-1.086 41.266 -1.092 35.094 -1.095 28.921 C-1.097 26.561 -1.1 24.202 -1.106 21.842 C-1.113 18.547 -1.114 15.252 -1.114 11.958 C-1.117 10.974 -1.121 9.99 -1.124 8.976 C-1.123 8.081 -1.122 7.186 -1.12 6.265 C-1.121 5.875 -1.121 5.875 -1.123 3.902 C-1 2 -1 2 0 0 Z " fill="#FFFFFF" transform="translate(601,596)"/>
<path d="M0 0 C0.33 0 0.66 0 1 0 C1.01 1.071 1.021 2.141 1.031 3.244 C1.13 13.422 1.233 23.599 1.339 33.776 C1.394 39.006 1.447 44.236 1.497 49.466 C1.546 54.53 1.598 59.594 1.653 64.658 C1.673 66.573 1.692 68.488 1.709 70.403 C2.019 104.452 2.019 104.452 4.188 119.75 C4.313 120.643 4.438 121.536 4.567 122.456 C7.092 139.196 11.631 155.337 18 171 C18.33 171.99 18.66 172.98 19 174 C18.34 174.33 17.68 174.66 17 175 C9.21 156.037 4.163 137.607 1.987 117.198 C1.884 116.271 1.782 115.345 1.676 114.391 C1.634 113.978 1.634 113.978 1.423 111.892 C1.283 111.267 1.144 110.643 1 110 C0.34 109.67 -0.32 109.34 -1 109 C-1.027 107.417 -1.046 105.833 -1.062 104.25 C-1.074 103.368 -1.086 102.487 -1.098 101.578 C-1 99 -1 99 -0.495 97.178 C0.097 94.571 0.078 92.251 0.022 89.578 C0.002 88.485 -0.018 87.393 -0.039 86.268 C-0.066 85.084 -0.093 83.9 -0.121 82.68 C-0.145 81.444 -0.168 80.208 -0.193 78.935 C-0.244 76.286 -0.297 73.638 -0.352 70.99 C-0.495 64.151 -0.616 57.312 -0.738 50.473 C-0.75 49.799 -0.763 49.126 -0.775 48.432 C-0.98 37.059 -1.116 25.688 -1.125 14.312 C-1.127 13.61 -1.13 12.907 -1.132 12.182 C-1.138 10.263 -1.136 8.345 -1.133 6.426 C-1.132 5.388 -1.131 4.351 -1.129 3.282 C-1 1 -1 1 0 0 Z " fill="#FFFFFF" transform="translate(161,586)"/>
<path d="M0 0 C-6.925 2.424 -13.842 4.39 -21 6 C-22.114 6.257 -23.227 6.514 -24.374 6.779 C-39.733 9.823 -55.293 9.565 -70.886 9.67 C-74.864 9.699 -78.842 9.743 -82.819 9.784 C-89.796 9.855 -96.773 9.91 -103.75 9.956 C-109.194 9.993 -114.637 10.043 -120.08 10.098 C-123.679 10.131 -127.277 10.156 -130.875 10.174 C-132.446 10.183 -134.018 10.195 -135.589 10.209 C-137.69 10.226 -139.79 10.231 -141.891 10.23 C-143.015 10.235 -144.139 10.239 -145.298 10.243 C-148 10 -148 10 -151 8 C-150.262 8.002 -149.525 8.004 -148.765 8.006 C-129.99 8.049 -111.222 7.954 -92.449 7.683 C-89.686 7.643 -86.923 7.608 -84.16 7.578 C-69.805 7.419 -55.481 7.118 -41.156 6.086 C-40.084 6.01 -39.011 5.934 -37.906 5.855 C-27.4 5.021 -16.679 3.432 -6.738 -0.188 C-3.928 -1.021 -2.693 -1.036 0 0 Z " fill="#FFFFFF" transform="translate(769,827)"/>
<path d="M0 0 C4.479 0.457 8.02 1.411 12.12 3.227 C17.503 5.441 23.361 6.583 29 8 C29.819 8.219 30.637 8.438 31.48 8.664 C37.284 10.123 43.094 10.439 49.059 10.754 C52 11 52 11 54 12 C55.871 12.228 57.747 12.41 59.625 12.562 C60.628 12.646 61.631 12.73 62.664 12.816 C63.049 12.847 63.049 12.847 65 13 C65 13.33 65 13.66 65 14 C52.005 17.033 39.183 14.419 26.442 11.54 C22.309 10.626 18.154 9.815 14 9 C14 8.34 14 7.68 14 7 C13.361 6.918 12.721 6.835 12.062 6.75 C7.795 5.705 3.969 3.859 0 2 C0 1.34 0 0.68 0 0 Z " fill="#FFFFFF" transform="translate(242,823)"/>
<path d="M0 0 C1.634 4.979 -0.183 8.768 -1.812 13.562 C-2.127 14.492 -2.442 15.421 -2.766 16.379 C-9.662 35.938 -20.682 53.057 -35 68 C-35.334 68.36 -35.334 68.36 -37.023 70.18 C-47.896 81.568 -47.896 81.568 -55.562 82.375 C-55.965 82.313 -55.965 82.313 -58 82 C-54.467 79.09 -50.806 76.537 -47 74 C-45.303 72.705 -43.64 71.366 -42 70 C-41.403 69.508 -40.806 69.015 -40.191 68.508 C-28.047 58.234 -28.047 58.234 -25.023 51.98 C-24 50 -24 50 -22.152 48.223 C-19.3 45.277 -17.522 42.017 -15.562 38.438 C-15.166 37.719 -14.77 37 -14.362 36.259 C-7.981 24.566 -3.837 12.723 0 0 Z " fill="#FFFFFF" transform="translate(855,731)"/>
<path d="M0 0 C0.33 0 0.66 0 1 0 C1.33 32.67 1.66 65.34 2 99 C-1.059 95.941 -2.473 94.507 -4.293 90.941 C-7.278 85.363 -10.773 80.176 -14.312 74.938 C-14.958 73.977 -15.603 73.016 -16.268 72.025 C-17.842 69.681 -19.419 67.34 -21 65 C-20.67 64.34 -20.34 63.68 -20 63 C-17.583 66.541 -15.166 70.083 -12.75 73.625 C-12.068 74.624 -11.386 75.623 -10.684 76.652 C-10.02 77.626 -9.356 78.599 -8.672 79.602 C-8.064 80.492 -7.457 81.382 -6.831 82.299 C-4.872 85.189 -2.937 88.095 -1 91 C-0.835 75.985 -0.835 75.985 0 0 Z " fill="#FFFFFF" transform="translate(511,523)"/>
<path d="M0 0 C0.66 0 1.32 0 2 0 C1.67 40.59 1.34 81.18 1 123 C0.67 123 0.34 123 0 123 C-0.33 84.72 -0.66 46.44 -1 7 C-2.98 9.97 -4.96 12.94 -7 16 C-7.33 15.34 -7.66 14.68 -8 14 C-6.855 11.758 -6.855 11.758 -5.188 9.125 C-3.308 6.134 -1.521 3.19 0 0 Z " fill="#FFFFFF" transform="translate(599,368)"/>
<path d="M0 0 C0.33 0 0.66 0 1 0 C1.198 3.562 1.381 7.125 1.562 10.688 C1.619 11.695 1.675 12.702 1.732 13.74 C1.781 14.717 1.829 15.693 1.879 16.699 C1.902 17.147 1.902 17.147 2.022 19.413 C1.999 22.07 1.525 24.403 1 27 C1.235 28.779 1.474 30.558 1.742 32.332 C2.34 38.52 2.068 44.79 2 51 C4.31 49.02 6.62 47.04 9 45 C9.66 45.33 10.32 45.66 11 46 C9.756 47.298 8.505 48.588 7.25 49.875 C6.554 50.594 5.858 51.314 5.141 52.055 C3.13 53.882 1.43 54.856 -1 56 C-1.025 48.185 -1.043 40.371 -1.055 32.556 C-1.06 29.896 -1.067 27.235 -1.075 24.574 C-1.088 20.759 -1.093 16.944 -1.098 13.129 C-1.103 11.931 -1.108 10.733 -1.113 9.499 C-1.113 8.398 -1.113 7.297 -1.114 6.162 C-1.116 5.188 -1.118 4.213 -1.12 3.208 C-1 1 -1 1 0 0 Z " fill="#FFFFFF" transform="translate(662,483)"/>
<path d="M0 0 C2.31 0 4.62 0 7 0 C7 1.32 7 2.64 7 4 C7.358 4.068 7.358 4.068 9.172 4.41 C11.907 4.981 14.566 5.662 17.25 6.438 C17.686 6.561 17.686 6.561 19.891 7.184 C22 8 22 8 23 10 C24.828 10.527 24.828 10.527 27.25 10.938 C31.442 11.689 35.552 12.607 39.688 13.625 C44.285 14.707 48.295 15.328 53 15 C53 15.66 53 16.32 53 17 C55.31 17 57.62 17 60 17 C60 17.33 60 17.66 60 18 C51.068 18.389 43.551 17.501 35 15 C33.51 14.595 32.019 14.193 30.527 13.793 C28.935 13.363 27.342 12.932 25.75 12.5 C25.005 12.299 24.261 12.097 23.493 11.89 C18.544 10.518 13.787 8.863 9 7 C8.67 7.66 8.34 8.32 8 9 C7.34 8.34 6.68 7.68 6 7 C6.66 7 7.32 7 8 7 C8 6.34 8 5.68 8 5 C7.618 4.866 7.618 4.866 5.688 4.188 C3.126 3.056 1.803 2.088 0 0 Z " fill="#FFFFFF" transform="translate(233,816)"/>
<path d="M0 0 C1.634 4.98 -0.184 8.768 -1.812 13.562 C-2.125 14.489 -2.438 15.416 -2.76 16.37 C-7.496 29.841 -14.229 42.702 -23 54 C-23.66 53.34 -24.32 52.68 -25 52 C-24.599 51.548 -24.198 51.095 -23.785 50.629 C-11.775 36.222 -4.905 17.9 0 0 Z " fill="#FFFFFF" transform="translate(855,731)"/>
<path d="M0 0 C0.66 0.33 1.32 0.66 2 1 C1.34 1.66 0.68 2.32 0 3 C-0.99 3 -1.98 3 -3 3 C-3 3.66 -3 4.32 -3 5 C-4.553 5.67 -6.106 6.338 -7.664 6.996 C-9.439 7.759 -11.203 8.547 -12.961 9.348 C-14.005 9.81 -15.049 10.273 -16.125 10.75 C-17.118 11.199 -18.11 11.647 -19.133 12.109 C-22.258 13.08 -23.904 12.93 -27 12 C-26.01 11.67 -25.02 11.34 -24 11 C-20.898 9.702 -17.806 8.381 -14.715 7.059 C-12 6 -12 6 -10 6 C-10 5.01 -10 4.02 -10 3 C-9.681 2.934 -9.681 2.934 -8.066 2.598 C-7.24 2.421 -6.414 2.244 -5.562 2.062 C-5.151 1.975 -5.151 1.975 -3.066 1.535 C-1 1 -1 1 0 0 Z " fill="#FFFFFF" transform="translate(795,813)"/>
<path d="M0 0 C3.641 1.304 6.398 2.862 9.426 5.258 C10.222 5.883 11.018 6.508 11.838 7.152 C12.655 7.803 13.471 8.454 14.312 9.125 C14.73 9.454 14.73 9.454 16.846 11.121 C18.901 12.742 20.953 14.369 23 16 C17.992 16 14.882 12.125 11.105 9.066 C7.901 6.934 5.794 6.312 2 6 C1.34 4.02 0.68 2.04 0 0 Z " fill="#FFFFFF" transform="translate(425,369)"/>
<path d="M0 0 C2.31 0 4.62 0 7 0 C7 1.32 7 2.64 7 4 C7.351 4.052 7.351 4.052 9.125 4.312 C12.42 5.101 15.059 6.329 18 8 C18.33 8.66 18.66 9.32 19 10 C15.7 9.01 12.4 8.02 9 7 C8.67 7.66 8.34 8.32 8 9 C7.34 8.34 6.68 7.68 6 7 C6.66 7 7.32 7 8 7 C8 6.34 8 5.68 8 5 C7.618 4.866 7.618 4.866 5.688 4.188 C3.126 3.056 1.803 2.088 0 0 Z " fill="#FFFFFF" transform="translate(233,816)"/>
<path d="M0 0 C0 0.66 0 1.32 0 2 C-2.184 2.678 -4.372 3.342 -6.562 4 C-7.781 4.371 -8.999 4.742 -10.254 5.125 C-13.979 5.995 -17.191 6.157 -21 6 C-18.169 3.169 -14.844 2.773 -11.062 1.875 C-10.334 1.693 -9.605 1.511 -8.854 1.324 C-5.835 0.588 -3.118 0 0 0 Z " fill="#FFFFFF" transform="translate(768,829)"/>
<path d="M0 0 C0.33 0.66 0.66 1.32 1 2 C0.541 2.568 0.082 3.137 -0.391 3.723 C-6.011 10.795 -6.011 10.795 -8.125 14.875 C-10.102 18.169 -11.571 19.381 -15 21 C-13.609 18.007 -11.977 15.5 -9.961 12.891 C-9.381 12.137 -8.801 11.382 -8.203 10.605 C-7.6 9.828 -6.997 9.051 -6.375 8.25 C-5.764 7.457 -5.153 6.664 -4.523 5.848 C-3.019 3.896 -1.511 1.947 0 0 Z " fill="#FFFFFF" transform="translate(742,301)"/>
<path d="M0 0 C0.33 0.99 0.66 1.98 1 3 C-0.652 5.699 -0.652 5.699 -2.938 8.688 C-3.689 9.681 -4.441 10.675 -5.215 11.699 C-5.804 12.458 -6.393 13.218 -7 14 C-6.34 14 -5.68 14 -5 14 C-6.37 17.161 -6.989 17.993 -10 20 C-9.587 14.106 -7.949 10.746 -4.438 6.062 C-4.013 5.474 -3.588 4.886 -3.15 4.279 C-2.112 2.844 -1.058 1.421 0 0 Z " fill="#FFFFFF" transform="translate(527,598)"/>
<path d="M0 0 C2.132 2.056 4.066 4.086 5.875 6.438 C8.344 9.415 10.977 11.595 14 14 C13.67 14.66 13.34 15.32 13 16 C7.286 11.592 2.823 7.089 -1 1 C-0.67 0.67 -0.34 0.34 0 0 Z " fill="#FFFFFF" transform="translate(192,781)"/>
<path d="M0 0 C-1.125 2.972 -2.223 5.334 -4 8 C-7.625 8.188 -7.625 8.188 -11 8 C-3.216 0 -3.216 0 0 0 Z " fill="#FFFFFF" transform="translate(598,370)"/>
<path d="M0 0 C4.755 -0.743 7.561 1.268 11.426 3.711 C11.945 4.136 12.465 4.562 13 5 C13 5.66 13 6.32 13 7 C7.532 6.6 4.041 4.539 0 1 C0 0.67 0 0.34 0 0 Z " fill="#FFFFFF" transform="translate(228,816)"/>
<path d="M0 0 C3.557 3.506 6.963 7.106 10.312 10.812 C11.196 11.788 12.079 12.764 12.988 13.77 C13.652 14.506 14.316 15.242 15 16 C14.34 16.66 13.68 17.32 13 18 C11.583 16.271 10.166 14.542 8.75 12.812 C7.961 11.85 7.172 10.887 6.359 9.895 C5.97 9.417 5.97 9.417 4 7 C3.242 6.096 2.484 5.193 1.703 4.262 C0 2 0 2 0 0 Z " fill="#FFFFFF" transform="translate(486,592)"/>
<path d="M0 0 C3.582 1.312 6.552 2.896 9.688 5.062 C13.857 7.928 13.857 7.928 16 9 C13.863 9.773 13.863 9.773 11 10 C8.105 8.164 8.105 8.164 5.188 5.625 C4.212 4.792 3.236 3.96 2.23 3.102 C1.494 2.408 0.758 1.715 0 1 C0 0.67 0 0.34 0 0 Z " fill="#FFFFFF" transform="translate(209,800)"/>
<path d="M0 0 C4.03 3.627 5.319 6.957 7 12 C6.01 12 5.02 12 4 12 C1.812 9.5 1.812 9.5 0 7 C0.33 6.34 0.66 5.68 1 5 C0.67 4.01 0.34 3.02 0 2 C0 1.34 0 0.68 0 0 Z " fill="#FFFFFF" transform="translate(501,605)"/>
<path d="M0 0 C1.316 0.618 2.628 1.244 3.938 1.875 C4.668 2.223 5.399 2.571 6.152 2.93 C8 4 8 4 9 6 C6.188 6.688 6.188 6.688 3 7 C1.125 5.812 1.125 5.812 0 4 C0 2.68 0 1.36 0 0 Z " fill="#FFFFFF" transform="translate(224,810)"/>
<path d="M0 0 C1.175 0.758 2.34 1.532 3.5 2.312 C3.825 2.527 3.825 2.527 5.469 3.613 C5.974 4.071 6.479 4.529 7 5 C7 8 7 8 6 10 C4.991 8.904 3.993 7.798 3 6.688 C2.722 6.38 2.722 6.38 1.312 4.824 C0 3 0 3 0 0 Z " fill="#FFFFFF" transform="translate(269,282)"/>
<path d="M0 0 C2.31 0.33 4.62 0.66 7 1 C7.33 1.99 7.66 2.98 8 4 C2.25 3.125 2.25 3.125 0 2 C0 1.34 0 0.68 0 0 Z " fill="#FFFFFF" transform="translate(242,823)"/>
<path d="M0 0 C0.99 0.33 1.98 0.66 3 1 C2.34 2.32 1.68 3.64 1 5 C-1.31 5 -3.62 5 -6 5 C-5.196 4.361 -4.391 3.721 -3.562 3.062 C-1 1 -1 1 0 0 Z " fill="#FFFFFF" transform="translate(803,808)"/>
<path d="M0 0 C0.66 0 1.32 0 2 0 C0.814 3.375 -0.276 5.647 -3 8 C-3.33 7.01 -3.66 6.02 -4 5 C-2.188 2.312 -2.188 2.312 0 0 Z " fill="#FFFFFF" transform="translate(596,370)"/>
<path d="M0 0 C0.33 0 0.66 0 1 0 C1 1.65 1 3.3 1 5 C-0.98 5.66 -2.96 6.32 -5 7 C-1.125 1.125 -1.125 1.125 0 0 Z " fill="#FFFFFF" transform="translate(755,284)"/>
<path d="M0 0 C2.31 0 4.62 0 7 0 C7 1.32 7 2.64 7 4 C3.73 3.436 2.174 2.5 0 0 Z " fill="#FFFFFF" transform="translate(233,816)"/>
<path d="M0 0 C5.571 5.143 5.571 5.143 6 9 C0.429 3.857 0.429 3.857 0 0 Z " fill="#FFFFFF" transform="translate(186,773)"/>
<path d="M0 0 C0 3 0 3 -2 5.188 C-2.66 5.786 -3.32 6.384 -4 7 C-4.33 5.68 -4.66 4.36 -5 3 C-3.35 2.01 -1.7 1.02 0 0 Z " fill="#FFFFFF" transform="translate(753,284)"/>
<path d="M0 0 C1.98 0 3.96 0 6 0 C6 0.33 6 0.66 6 1 C4.02 1.33 2.04 1.66 0 2 C0 1.34 0 0.68 0 0 Z " fill="#FFFFFF" transform="translate(280,838)"/>
<path d="M0 0 C1.98 0 3.96 0 6 0 C6 0.33 6 0.66 6 1 C4.02 1 2.04 1 0 1 C0 0.67 0 0.34 0 0 Z " fill="#FFFFFF" transform="translate(731,839)"/>
<path d="M0 0 C4 1 4 1 4 1 Z " fill="#FFFFFF" transform="translate(288,839)"/>
<path d="M0 0 C0 3 0 3 0 3 Z " fill="#FFFFFF" transform="translate(172,749)"/>
<path d="M0 0 C3 1 3 1 3 1 Z " fill="#FFFFFF" transform="translate(739,838)"/>
<path d="M0 0 C0.66 0 1.32 0 2 0 C1.67 0.66 1.34 1.32 1 2 C0.67 1.34 0.34 0.68 0 0 Z " fill="#FFFFFF" transform="translate(201,797)"/>
<path d="M0 0 C0.66 0.66 1.32 1.32 2 2 C1.34 2 0.68 2 0 2 C0 1.34 0 0.68 0 0 Z " fill="#FFFFFF" transform="translate(192,786)"/>
<path d="M0 0 C2 1 2 1 2 1 Z " fill="#FFFFFF" transform="translate(274,837)"/>
<path d="M0 0 C2 1 2 1 2 1 Z " fill="#FFFFFF" transform="translate(755,835)"/>
<path d="M0 0 C2 1 2 1 2 1 Z " fill="#FFFFFF" transform="translate(188,782)"/>
<path d="M0 0 C2 1 2 1 2 1 Z " fill="#FFFFFF" transform="translate(184,781)"/>
<path d="M0 0 C2 1 2 1 2 1 Z " fill="#FFFFFF" transform="translate(186,779)"/>
<path d="M0 0 C2 1 2 1 2 1 Z " fill="#FFFFFF" transform="translate(184,776)"/>
</g>
</svg>
